<svg width="160" height="48" viewBox="0 0 160 48" fill="none" xmlns="http://www.w3.org/2000/svg">
<path d="M118.912 39.1188C116.535 39.1188 114.472 38.7692 112.724 38.07C111.011 37.3709 109.578 36.392 108.424 35.1335C107.306 33.84 106.467 32.3368 105.907 30.6238C105.348 28.9109 105.068 27.0581 105.068 25.0654C105.068 22.9329 105.348 20.9752 105.907 19.1924C106.502 17.4095 107.376 15.8538 108.529 14.5254C109.683 13.1969 111.099 12.1657 112.777 11.4315C114.49 10.6974 116.447 10.3303 118.65 10.3303C120.852 10.3303 122.757 10.6974 124.366 11.4315C126.009 12.1657 127.337 13.1969 128.351 14.5254C129.365 15.8188 130.046 17.3395 130.396 19.0875L124.208 21.0277C124.138 19.9789 123.859 19.0525 123.369 18.2485C122.88 17.4095 122.216 16.7627 121.377 16.3083C120.538 15.8538 119.541 15.6266 118.388 15.6266C117.269 15.6266 116.29 15.8538 115.451 16.3083C114.647 16.7278 113.965 17.3395 113.406 18.1436C112.882 18.9476 112.462 19.9265 112.148 21.0801C111.868 22.1988 111.728 23.4573 111.728 24.8557C111.728 26.7784 111.99 28.4214 112.515 29.7848C113.039 31.1482 113.843 32.2145 114.927 32.9836C116.01 33.7177 117.356 34.0848 118.964 34.0848C120.398 34.0848 121.551 33.8226 122.425 33.2982C123.334 32.7388 124.016 32.0222 124.47 31.1482C124.96 30.2743 125.257 29.3129 125.362 28.2641L131.235 29.5751C131.025 31.0084 130.623 32.3019 130.029 33.4555C129.435 34.6091 128.613 35.6229 127.564 36.4969C126.551 37.3359 125.327 37.9826 123.894 38.4371C122.46 38.8916 120.8 39.1188 118.912 39.1188Z" fill="#3136C4"/>
<path d="M93.8683 38.4371V11.012H100.476V38.4371H93.8683ZM97.1719 6.71207C95.8435 6.71207 94.8122 6.4324 94.0781 5.87306C93.3789 5.27876 93.0293 4.43975 93.0293 3.35604C93.0293 2.27232 93.3789 1.45079 94.0781 0.891448C94.8122 0.297149 95.8435 0 97.1719 0C98.5703 0 99.619 0.27967 100.318 0.83901C101.017 1.39835 101.367 2.23736 101.367 3.35604C101.367 4.43975 101 5.27876 100.266 5.87306C99.5666 6.4324 98.5353 6.71207 97.1719 6.71207Z" fill="#3136C4"/>
<path d="M45.7239 39.1188C43.5215 39.1188 41.5464 38.8042 39.7984 38.1749C38.0855 37.5457 36.6347 36.6367 35.4461 35.4481C34.2575 34.2246 33.3485 32.7563 32.7193 31.0433C32.09 29.3304 31.7754 27.3902 31.7754 25.2227C31.7754 23.0553 32.0725 21.0626 32.6668 19.2448C33.2961 17.4269 34.1875 15.8538 35.3412 14.5254C36.4948 13.1969 37.8932 12.1657 39.5362 11.4315C41.2143 10.6974 43.1195 10.3303 45.252 10.3303C47.2446 10.3303 49.0275 10.6624 50.6007 11.3266C52.1738 11.9909 53.5023 12.9872 54.586 14.3156C55.6697 15.6091 56.4738 17.2347 56.9981 19.1924C57.5225 21.1151 57.6973 23.3524 57.5225 25.9044L36.0753 26.0617V22.2338L53.6945 22.0764L51.3873 24.2264C51.597 22.2338 51.4397 20.6082 50.9153 19.3497C50.3909 18.0562 49.6393 17.1123 48.6605 16.518C47.6816 15.8888 46.5629 15.5741 45.3044 15.5741C43.8711 15.5741 42.6126 15.9587 41.5289 16.7278C40.4452 17.4619 39.6062 18.5456 39.0119 19.9789C38.4525 21.3773 38.1728 23.0902 38.1728 25.1178C38.1728 28.1593 38.8371 30.4316 40.1655 31.9348C41.5289 33.438 43.3817 34.1896 45.7239 34.1896C46.7727 34.1896 47.6467 34.0673 48.3458 33.8226C49.08 33.5429 49.6918 33.1933 50.1812 32.7738C50.6706 32.3193 51.0552 31.8124 51.3348 31.2531C51.6495 30.6938 51.8942 30.0995 52.069 29.4702L57.8372 30.7812C57.5575 32.0746 57.103 33.2283 56.4738 34.2421C55.8445 35.2559 55.023 36.1298 54.0092 36.864C53.0303 37.5981 51.8592 38.1574 50.4958 38.542C49.1324 38.9265 47.5418 39.1188 45.7239 39.1188Z" fill="#3136C4"/>
<path fill-rule="evenodd" clip-rule="evenodd" d="M6.56172 3.82788H0V38.437H6.6072V28.8572H6.56172V3.82788ZM8.84163 26.0616H12.5851C13.9835 26.0616 15.1721 26.2364 16.1509 26.586C17.1298 26.9356 17.9338 27.5299 18.5631 28.3689C19.2273 29.2079 19.7167 30.3266 20.0313 31.7249L21.6569 38.437H28.9458L26.8483 31.1481C26.3938 29.505 25.852 28.1591 25.2227 27.1104C24.5935 26.0616 23.7544 25.2401 22.7057 24.6458C22.6728 24.6265 22.6396 24.607 22.6061 24.5873C21.6065 24.0006 20.3288 23.2505 18.7728 23.0476C20.0506 22.8693 21.1895 22.3933 22.1894 21.9755C22.3658 21.9018 22.5379 21.8298 22.7057 21.7617C23.8593 21.2723 24.8032 20.6605 25.5373 19.9264C26.3064 19.1922 26.8833 18.3357 27.2678 17.3569C27.6523 16.3431 27.8446 15.2244 27.8446 14.0009C27.8446 12.7074 27.6349 11.5363 27.2154 10.4875C26.7959 9.40379 26.1841 8.45991 25.38 7.65586C24.576 6.81685 23.5797 6.11768 22.3911 5.55834C21.2374 4.999 19.8915 4.57949 18.3533 4.29982C16.8501 3.98519 15.1896 3.82788 13.3717 3.82788H8.84163V9.01924H13.0046C15.6965 9.01924 17.6891 9.50867 18.9826 10.4875C20.311 11.4664 20.9752 12.9696 20.9752 14.9972C20.9752 17.0248 20.2761 18.528 18.8777 19.5069C17.5143 20.4857 15.5217 20.9751 12.8998 20.9751H8.84163V26.0616Z" fill="#3136C4"/>
<path fill-rule="evenodd" clip-rule="evenodd" d="M134.619 1.15356V38.437H141.121V27.0055H141.128V22.0723C141.126 22.0737 141.124 22.075 141.121 22.0763V1.15356H134.619ZM143.408 20.5303V27.013C144.905 27.0698 146.135 27.4519 147.099 28.1591C148.183 28.8933 149.075 29.942 149.774 31.3054C150.508 32.6339 151.207 34.172 151.871 35.92L152.71 38.437H159.999L158.636 34.609C158.042 33.1757 157.395 31.7774 156.696 30.414C156.031 29.0156 155.192 27.7921 154.179 26.7433C153.165 25.6946 151.924 24.908 150.455 24.3836C148.987 23.8592 147.169 23.7544 145.002 24.069V23.3348C146.715 23.0202 148.323 22.4609 149.826 21.6568C151.329 20.8178 152.675 19.839 153.864 18.7203C155.088 17.6016 156.154 16.3781 157.063 15.0496C157.972 13.7212 158.706 12.3753 159.265 11.0119H151.662C151.207 11.9208 150.63 12.8822 149.931 13.896C149.232 14.8748 148.428 15.8537 147.519 16.8325C146.61 17.8114 145.614 18.7553 144.53 19.6642C144.162 19.9609 143.788 20.2496 143.408 20.5303Z" fill="#3136C4"/>
<path fill-rule="evenodd" clip-rule="evenodd" d="M68.8592 47.1418H62.252V24.9081V11.012H67.8104L68.8746 11.0127V47.1418L68.8592 47.1418ZM71.2634 31.587C71.2255 31.5423 71.1881 31.4974 71.1511 31.4522V35.9819C71.8249 36.8342 72.634 37.5303 73.5786 38.07C74.8021 38.7692 76.3054 39.1188 78.0882 39.1188C80.5354 39.1188 82.5804 38.507 84.2236 37.2835C85.9015 36.025 87.1427 34.3295 87.9467 32.197C88.7857 30.0296 89.2052 27.5824 89.2052 24.8557C89.2052 21.9541 88.7507 19.4196 87.8418 17.2521C86.9679 15.0497 85.6743 13.3542 83.9613 12.1657C82.2484 10.9421 80.1683 10.3303 77.7211 10.3303C76.0432 10.3303 74.5924 10.645 73.3688 11.2742C72.5314 11.7049 71.792 12.2749 71.1511 12.9841V18.0462C71.6285 17.5022 72.1754 17.0453 72.792 16.6753C73.666 16.1509 74.6798 15.8888 75.8335 15.8888C77.1619 15.8888 78.3155 16.2558 79.2943 16.9899C80.2733 17.7241 81.0073 18.7554 81.4967 20.0838C82.0212 21.4122 82.2833 22.9854 82.2833 24.8032C82.2833 26.5512 82.0386 28.1068 81.5492 29.4702C81.0598 30.7986 80.3431 31.8474 79.3992 32.6165C78.4553 33.3506 77.3017 33.7177 75.9383 33.7177C75.0293 33.7177 74.1904 33.5429 73.4212 33.1933C72.6521 32.8437 71.9879 32.3718 71.4287 31.7775C71.3727 31.7145 71.3176 31.651 71.2634 31.587Z" fill="#3136C4"/>
</svg>
